{
    "asset" : {
        "generator" : "Khronos glTF Blender I/O v1.7.33",
        "version" : "2.0"
    },
    "scene" : 0,
    "scenes" : [
        {
            "name" : "Scene",
            "nodes" : [
                0,
                1,
                2,
                3,
                4,
                5
            ]
        }
    ],
    "nodes" : [
        {
            "mesh" : 0,
            "name" : "Cube",
            "translation" : [
                19.102264404296875,
                3.050776481628418,
                0
            ]
        },
        {
            "mesh" : 1,
            "name" : "Sphere",
            "scale" : [
                0.5652638673782349,
                0.5652638673782349,
                0.5652638673782349
            ],
            "translation" : [
                19.102264404296875,
                3.6096458435058594,
                -0.09920729696750641
            ]
        },
        {
            "mesh" : 2,
            "name" : "Plane",
            "rotation" : [
                0.7071068286895752,
                0,
                0,
                0.7071068286895752
            ],
            "translation" : [
                19.102264404296875,
                3.050776481628418,
                0
            ]
        },
        {
            "mesh" : 3,
            "name" : "Sphere.001",
            "rotation" : [
                0.8000150322914124,
                0,
                0,
                0.5999799370765686
            ],
            "scale" : [
                0.17937301099300385,
                0.10449540615081787,
                0.17937301099300385
            ],
            "translation" : [
                19.102264404296875,
                2.758565664291382,
                0.5716524124145508
            ]
        },
        {
            "mesh" : 4,
            "name" : "Plane.001",
            "rotation" : [
                0.8000146150588989,
                0,
                0,
                0.5999805331230164
            ],
            "translation" : [
                19.102264404296875,
                2.7693796157836914,
                0.6492736339569092
            ]
        },
        {
            "mesh" : 5,
            "name" : "Plane.002",
            "scale" : [
                0.9131775498390198,
                0.9131775498390198,
                0.9131775498390198
            ],
            "translation" : [
                19.102264404296875,
                2.9636495113372803,
                0
            ]
        }
    ],
    "materials" : [
        {
            "doubleSided" : true,
            "name" : "Material.001",
            "pbrMetallicRoughness" : {
                "baseColorFactor" : [
                    0.46207717061042786,
                    0.15292608737945557,
                    0.04666510969400406,
                    1
                ],
                "metallicFactor" : 0
            }
        },
        {
            "doubleSided" : true,
            "name" : "Material.002",
            "pbrMetallicRoughness" : {
                "baseColorFactor" : [
                    0,
                    0,
                    0,
                    1
                ],
                "metallicFactor" : 0
            }
        },
        {
            "doubleSided" : true,
            "name" : "Material.003",
            "pbrMetallicRoughness" : {
                "baseColorFactor" : [
                    1,
                    0.7156000137329102,
                    0.6399999856948853,
                    1
                ],
                "metallicFactor" : 0,
                "roughnessFactor" : 0.5
            }
        }
    ],
    "meshes" : [
        {
            "name" : "Cube",
            "primitives" : [
                {
                    "attributes" : {
                        "POSITION" : 0,
                        "NORMAL" : 1,
                        "TEXCOORD_0" : 2
                    },
                    "indices" : 3,
                    "material" : 0
                }
            ]
        },
        {
            "name" : "Sphere",
            "primitives" : [
                {
                    "attributes" : {
                        "POSITION" : 4,
                        "NORMAL" : 5,
                        "TEXCOORD_0" : 6
                    },
                    "indices" : 7,
                    "material" : 0
                }
            ]
        },
        {
            "name" : "Plane",
            "primitives" : [
                {
                    "attributes" : {
                        "POSITION" : 8,
                        "NORMAL" : 9,
                        "TEXCOORD_0" : 10
                    },
                    "indices" : 11,
                    "material" : 1
                }
            ]
        },
        {
            "name" : "Sphere.001",
            "primitives" : [
                {
                    "attributes" : {
                        "POSITION" : 12,
                        "NORMAL" : 13,
                        "TEXCOORD_0" : 14
                    },
                    "indices" : 15,
                    "material" : 2
                }
            ]
        },
        {
            "name" : "Plane.002",
            "primitives" : [
                {
                    "attributes" : {
                        "POSITION" : 16,
                        "NORMAL" : 17,
                        "TEXCOORD_0" : 18
                    },
                    "indices" : 19,
                    "material" : 1
                }
            ]
        },
        {
            "name" : "Plane.003",
            "primitives" : [
                {
                    "attributes" : {
                        "POSITION" : 20,
                        "NORMAL" : 21,
                        "TEXCOORD_0" : 22
                    },
                    "indices" : 23,
                    "material" : 0
                }
            ]
        }
    ],
    "accessors" : [
        {
            "bufferView" : 0,
            "componentType" : 5126,
            "count" : 21,
            "max" : [
                1.0061453580856323,
                0.7127471566200256,
                0.6363344788551331
            ],
            "min" : [
                0,
                -0.7325598001480103,
                -0.6353207230567932
            ],
            "type" : "VEC3"
        },
        {
            "bufferView" : 1,
            "componentType" : 5126,
            "count" : 21,
            "type" : "VEC3"
        },
        {
            "bufferView" : 2,
            "componentType" : 5126,
            "count" : 21,
            "type" : "VEC2"
        },
        {
            "bufferView" : 3,
            "componentType" : 5123,
            "count" : 72,
            "type" : "SCALAR"
        },
        {
            "bufferView" : 4,
            "componentType" : 5126,
            "count" : 81,
            "max" : [
                -0.5343741774559021,
                0.637363851070404,
                0.10648281872272491
            ],
            "min" : [
                -1.8091020584106445,
                -0.6373641490936279,
                -0.1832628697156906
            ],
            "type" : "VEC3"
        },
        {
            "bufferView" : 5,
            "componentType" : 5126,
            "count" : 81,
            "type" : "VEC3"
        },
        {
            "bufferView" : 6,
            "componentType" : 5126,
            "count" : 81,
            "type" : "VEC2"
        },
        {
            "bufferView" : 7,
            "componentType" : 5123,
            "count" : 378,
            "type" : "SCALAR"
        },
        {
            "bufferView" : 8,
            "componentType" : 5126,
            "count" : 9,
            "max" : [
                -0.2535267174243927,
                0.6257343888282776,
                0.24575334787368774
            ],
            "min" : [
                -0.48320117592811584,
                0.6257343888282776,
                0.018282964825630188
            ],
            "type" : "VEC3"
        },
        {
            "bufferView" : 9,
            "componentType" : 5126,
            "count" : 9,
            "type" : "VEC3"
        },
        {
            "bufferView" : 10,
            "componentType" : 5126,
            "count" : 9,
            "type" : "VEC2"
        },
        {
            "bufferView" : 11,
            "componentType" : 5123,
            "count" : 24,
            "type" : "SCALAR"
        },
        {
            "bufferView" : 12,
            "componentType" : 5126,
            "count" : 80,
            "max" : [
                1.1255841255187988,
                0.6831655502319336,
                0.8022557497024536
            ],
            "min" : [
                -1.1255841255187988,
                -1.0000001192092896,
                -0.9446043968200684
            ],
            "type" : "VEC3"
        },
        {
            "bufferView" : 13,
            "componentType" : 5126,
            "count" : 80,
            "type" : "VEC3"
        },
        {
            "bufferView" : 14,
            "componentType" : 5126,
            "count" : 80,
            "type" : "VEC2"
        },
        {
            "bufferView" : 15,
            "componentType" : 5123,
            "count" : 378,
            "type" : "SCALAR"
        },
        {
            "bufferView" : 16,
            "componentType" : 5126,
            "count" : 18,
            "max" : [
                0.05678052082657814,
                0.022270990535616875,
                0.13195233047008514
            ],
            "min" : [
                -0.12464180588722229,
                0,
                -0.056780532002449036
            ],
            "type" : "VEC3"
        },
        {
            "bufferView" : 17,
            "componentType" : 5126,
            "count" : 18,
            "type" : "VEC3"
        },
        {
            "bufferView" : 18,
            "componentType" : 5126,
            "count" : 18,
            "type" : "VEC2"
        },
        {
            "bufferView" : 19,
            "componentType" : 5123,
            "count" : 54,
            "type" : "SCALAR"
        },
        {
            "bufferView" : 20,
            "componentType" : 5126,
            "count" : 92,
            "max" : [
                -5.960464477539063e-08,
                -0.5067260265350342,
                0.48407837748527527
            ],
            "min" : [
                -1.2362343072891235,
                -3.2655742168426514,
                -0.4665418565273285
            ],
            "type" : "VEC3"
        },
        {
            "bufferView" : 21,
            "componentType" : 5126,
            "count" : 92,
            "type" : "VEC3"
        },
        {
            "bufferView" : 22,
            "componentType" : 5126,
            "count" : 92,
            "type" : "VEC2"
        },
        {
            "bufferView" : 23,
            "componentType" : 5123,
            "count" : 378,
            "type" : "SCALAR"
        }
    ],
    "bufferViews" : [
        {
            "buffer" : 0,
            "byteLength" : 252,
            "byteOffset" : 0
        },
        {
            "buffer" : 0,
            "byteLength" : 252,
            "byteOffset" : 252
        },
        {
            "buffer" : 0,
            "byteLength" : 168,
            "byteOffset" : 504
        },
        {
            "buffer" : 0,
            "byteLength" : 144,
            "byteOffset" : 672
        },
        {
            "buffer" : 0,
            "byteLength" : 972,
            "byteOffset" : 816
        },
        {
            "buffer" : 0,
            "byteLength" : 972,
            "byteOffset" : 1788
        },
        {
            "buffer" : 0,
            "byteLength" : 648,
            "byteOffset" : 2760
        },
        {
            "buffer" : 0,
            "byteLength" : 756,
            "byteOffset" : 3408
        },
        {
            "buffer" : 0,
            "byteLength" : 108,
            "byteOffset" : 4164
        },
        {
            "buffer" : 0,
            "byteLength" : 108,
            "byteOffset" : 4272
        },
        {
            "buffer" : 0,
            "byteLength" : 72,
            "byteOffset" : 4380
        },
        {
            "buffer" : 0,
            "byteLength" : 48,
            "byteOffset" : 4452
        },
        {
            "buffer" : 0,
            "byteLength" : 960,
            "byteOffset" : 4500
        },
        {
            "buffer" : 0,
            "byteLength" : 960,
            "byteOffset" : 5460
        },
        {
            "buffer" : 0,
            "byteLength" : 640,
            "byteOffset" : 6420
        },
        {
            "buffer" : 0,
            "byteLength" : 756,
            "byteOffset" : 7060
        },
        {
            "buffer" : 0,
            "byteLength" : 216,
            "byteOffset" : 7816
        },
        {
            "buffer" : 0,
            "byteLength" : 216,
            "byteOffset" : 8032
        },
        {
            "buffer" : 0,
            "byteLength" : 144,
            "byteOffset" : 8248
        },
        {
            "buffer" : 0,
            "byteLength" : 108,
            "byteOffset" : 8392
        },
        {
            "buffer" : 0,
            "byteLength" : 1104,
            "byteOffset" : 8500
        },
        {
            "buffer" : 0,
            "byteLength" : 1104,
            "byteOffset" : 9604
        },
        {
            "buffer" : 0,
            "byteLength" : 736,
            "byteOffset" : 10708
        },
        {
            "buffer" : 0,
            "byteLength" : 756,
            "byteOffset" : 11444
        }
    ],
    "buffers" : [
        {
            "byteLength" : 12200,
            "uri" : "data:application/octet-stream;base64,"
        }
    ]
}
